<svg xmlns="http://www.w3.org/2000/svg" width="48" height="48" viewBox="0 0 48 48" fill="none">
  <g clip-path="url(#clip0_1_6413)">
    <path d="M28.6199 20.1002C28.7399 24.5002 28.6599 37.7002 28.5199 38.2202L38.2399 48.0002C38.2399 41.6602 38.2399 35.3602 38.2399 29.0802L47.6599 38.5602C47.6599 29.2402 47.6599 19.9802 47.6599 10.7402H38.2999V20.1002H28.5999H28.6199Z" fill="white"/>
    <path d="M36.9597 9.34V0C27.7397 0 18.4997 0 9.23968 0L18.5597 9.42C12.3197 9.42 6.05968 9.42 -0.200317 9.42L9.45968 19.2C9.41968 19.16 9.37968 19.1 9.33968 19.06C15.4997 19 21.5397 18.94 27.5397 18.88V9.32H36.9397L36.9597 9.34Z" fill="white"/>
  </g>
  <defs>
    <clipPath id="clip0_1_6413">
      <rect width="48" height="48" fill="white"/>
    </clipPath>
  </defs>
</svg>