<svg xmlns="http://www.w3.org/2000/svg" width="159" height="32" viewBox="0 0 159 32" fill="none">
<rect width="159" height="32" fill="none"/>
<g id="Deploy - Empty">

<g id="Header navigation">



<g id="Container">
<g id="Content">
<g id="EtherScale_logo_dark">
<g id="Group 895">
<path id="Vector" d="M20.776 13.4C20.8625 16.3334 20.8048 25.1334 20.7039 25.48L27.7109 32C27.7109 27.7734 27.7109 23.5734 27.7109 19.3867L34.5017 25.7067C34.5017 19.4934 34.5017 13.32 34.5017 7.16003H27.7542V13.4H20.7616H20.776Z" fill="#0C38B1"/>
<path id="Vector_2" d="M26.7882 6.22667V0C20.1416 0 13.4806 0 6.80518 0L13.5238 6.28C9.02551 6.28 4.51276 6.28 0 6.28L6.96377 12.8C6.93494 12.7733 6.9061 12.7333 6.87727 12.7067C11.3179 12.6667 15.6721 12.6267 19.9974 12.5867V6.21333H26.7738L26.7882 6.22667Z" fill="#0C38B1"/>
</g>
<g id="Group">
<path id="Vector_3" d="M47.5017 20.48H57.4211V19H49.1453V13.0533H57.4211V11.5733H49.1453V6.82668H57.4932V5.34668H47.5017V20.4933V20.48Z" fill="#000000"/>
<path id="Vector_4" d="M61.3283 5.16003H59.7856V18.1467C59.7856 18.9734 59.9874 19.5867 60.3911 19.9734C60.7948 20.36 61.4725 20.5334 62.3808 20.5334H63.4333V19.2534H62.3808C61.9771 19.2534 61.6887 19.1734 61.5301 19.0134C61.3715 18.8534 61.285 18.56 61.285 18.1467L61.3139 10.4934H63.7505V9.2667H61.3139V5.16003H61.3283Z" fill="#000000"/>
<path id="Vector_5" d="M74.6071 9.62665C73.9006 9.19999 73.1076 8.98666 72.1993 8.98666C71.291 8.98666 70.498 9.17332 69.7339 9.55999C68.9697 9.94665 68.2777 10.52 67.6577 11.28V4.94666H66.1006V20.48H67.6577V16.3733C67.6577 14.8933 67.7298 13.88 67.874 13.32C68.1047 12.4667 68.6093 11.76 69.3446 11.1733C70.0943 10.6 70.9305 10.3067 71.8821 10.3067C72.8337 10.3067 73.3671 10.4933 73.8862 10.8667C74.3908 11.24 74.7512 11.8 74.9387 12.5467C75.054 12.9733 75.1117 13.84 75.1117 15.1333V20.48H76.6688V14.7067C76.6688 13.1733 76.4958 12.0533 76.1642 11.3333C75.8326 10.6133 75.3135 10.04 74.6071 9.61332V9.62665Z" fill="#000000"/>
<path id="Vector_6" d="M89.7024 11.16C88.4625 9.70669 86.8189 8.98669 84.7571 8.98669C82.6954 8.98669 81.1527 9.69336 79.956 11.1067C79.0189 12.2134 78.5431 13.48 78.5431 14.9067C78.5431 16.3334 79.1054 17.7734 80.2155 18.9734C81.3257 20.1734 82.8684 20.7734 84.8581 20.7734C86.8477 20.7734 86.5449 20.6534 87.2514 20.4C87.9579 20.1467 88.5923 19.7867 89.1545 19.3067C89.7168 18.8267 90.2215 18.2 90.654 17.4134L89.342 16.7734C88.8662 17.5067 88.4192 18.04 88.0155 18.36C87.6119 18.6934 87.1072 18.9467 86.5305 19.1467C85.9394 19.3467 85.3483 19.44 84.7283 19.44C83.4451 19.44 82.3782 19.0267 81.5131 18.1867C80.6481 17.36 80.1867 16.2934 80.1579 14.9867H91.0577C91.0433 13.4534 90.5963 12.1734 89.7168 11.16H89.7024ZM80.3021 13.7467C80.6192 12.72 81.095 11.9467 81.715 11.4267C82.5656 10.72 83.5893 10.36 84.786 10.36C85.9826 10.36 86.1989 10.5067 86.8477 10.7867C87.4965 11.0667 88.03 11.44 88.4192 11.8934C88.8229 12.3467 89.1257 12.9734 89.3276 13.7334H80.3021V13.7467Z" fill="#000000"/>
<path id="Vector_7" d="M96.2048 9.46669C95.6713 9.78669 95.1811 10.2667 94.7053 10.9067V9.26669H93.1194V20.4667H94.7053V16.68C94.7053 14.7334 94.8063 13.44 94.9937 12.8134C95.2532 11.9867 95.6137 11.3734 96.0894 10.9734C96.5796 10.5734 97.0698 10.3867 97.5889 10.3867C98.1079 10.3867 98.0791 10.4534 98.4107 10.5867L99.2181 9.37336C98.7279 9.12003 98.2665 8.98669 97.834 8.98669C97.4015 8.98669 96.7094 9.14669 96.1904 9.46669H96.2048Z" fill="#000000"/>
<path id="Vector_8" d="M120.787 10.3467C122.633 10.3467 124.089 11 125.156 12.3067L126.396 11.6C126.035 11.04 125.588 10.5733 125.069 10.2133C124.55 9.85333 123.916 9.56 123.166 9.33333C122.416 9.10667 121.652 9 120.845 9C119.576 9 118.408 9.26667 117.384 9.78667C116.346 10.3067 115.539 11.04 114.948 11.96C114.357 12.8933 114.068 13.8933 114.068 14.9867C114.068 16.6 114.703 17.9733 115.957 19.0933C117.211 20.2133 118.812 20.7867 120.729 20.7867C122.647 20.7867 123.094 20.56 124.06 20.12C125.04 19.68 125.819 19.0533 126.396 18.24L125.156 17.4933C124.031 18.8 122.575 19.4533 120.801 19.4533C119.028 19.4533 118.956 19.2533 118.177 18.8533C117.399 18.4533 116.779 17.8933 116.332 17.1733C115.885 16.4533 115.654 15.68 115.654 14.8667C115.654 13.6133 116.145 12.5467 117.111 11.6667C118.091 10.7867 119.316 10.3467 120.787 10.3467Z" fill="#000000"/>
<path id="Vector_9" d="M138.78 11.3334C138.175 10.5467 137.468 9.96003 136.661 9.57336C135.854 9.18669 134.96 8.98669 133.965 8.98669C132.249 8.98669 130.764 9.56003 129.553 10.7067C128.327 11.8534 127.722 13.24 127.722 14.8534C127.722 16.4667 128.327 17.9067 129.539 19.0534C130.75 20.2 132.22 20.7734 133.936 20.7734C135.652 20.7734 135.796 20.5867 136.603 20.2134C137.411 19.84 138.146 19.2934 138.795 18.56V20.48H140.337V9.28003H138.795V11.3467L138.78 11.3334ZM138.276 17.2267C137.872 17.9067 137.281 18.44 136.517 18.84C135.753 19.24 134.945 19.44 134.095 19.44C133.244 19.44 132.465 19.24 131.716 18.84C130.98 18.44 130.389 17.88 129.957 17.16C129.524 16.44 129.293 15.68 129.293 14.8934C129.293 14.1067 129.51 13.3467 129.942 12.6267C130.375 11.92 130.966 11.36 131.701 10.96C132.437 10.56 133.23 10.3734 134.109 10.3734C135.464 10.3734 136.589 10.8134 137.512 11.68C138.434 12.5467 138.896 13.64 138.896 14.9334C138.896 16.2267 138.694 16.5467 138.276 17.2267Z" fill="#000000"/>
<path id="Vector_10" d="M144.028 4.94666H142.471V20.48H144.028V4.94666Z" fill="#000000"/>
<path id="Vector_11" d="M155.13 18.3466C154.726 18.6799 154.222 18.9333 153.645 19.1333C153.068 19.3333 152.463 19.4266 151.843 19.4266C150.56 19.4266 149.493 19.0133 148.628 18.1733C147.763 17.3466 147.301 16.2799 147.287 14.9733H158.187C158.172 13.4399 157.725 12.1599 156.846 11.1466C155.606 9.69327 153.962 8.97327 151.901 8.97327C149.839 8.97327 148.296 9.67993 147.099 11.0933C146.148 12.1999 145.686 13.4666 145.686 14.8933C145.686 16.3199 146.249 17.7599 147.359 18.9599C148.469 20.1599 150.012 20.7599 152.001 20.7599C153.991 20.7599 153.688 20.6399 154.395 20.3866C155.101 20.1333 155.736 19.7733 156.298 19.2933C156.86 18.8133 157.365 18.1866 157.797 17.3999L156.485 16.7599C156.01 17.4933 155.563 18.0266 155.159 18.3466H155.13ZM148.844 11.4266C149.695 10.7199 150.718 10.3599 151.915 10.3599C153.112 10.3599 153.328 10.5066 153.977 10.7866C154.625 11.0666 155.159 11.4399 155.548 11.8933C155.952 12.3466 156.255 12.9733 156.457 13.7333H147.431C147.748 12.7066 148.224 11.9333 148.844 11.4133V11.4266Z" fill="#000000"/>
<path id="Vector_12" d="M111.343 14.1466L103.039 10.24C102.462 9.98663 102.073 9.3333 102.073 8.58663C102.073 7.83996 102.765 6.59996 103.616 6.59996H111.574L111.632 5.2533H103.616C102.03 5.2533 100.746 6.74663 100.746 8.58663C100.746 10.4266 101.453 11.16 102.549 11.6666L110.853 15.5733C111.444 15.8533 111.819 16.52 111.819 17.2533C111.819 17.9866 111.098 19.2266 110.233 19.2266H101.352V20.5866H110.248C111.834 20.5866 113.117 19.0933 113.117 17.2533C113.117 15.4133 112.439 14.68 111.329 14.1466H111.343Z" fill="#000000"/>
</g>
</g>
</g>
</g>
</g>
</g>
</svg>